<svg width="140" height="23" xmlns="http://www.w3.org/2000/svg">
 <!-- Generator: Sketch 42 (36781) - http://www.bohemiancoding.com/sketch -->
 <title>Group 3</title>
 <desc>Created with Sketch.</desc>

 <g>
  <title>background</title>
  <rect fill="none" id="canvas_background" height="25" width="142" y="-1" x="-1"/>
 </g>
 <g>
  <title>Layer 1</title>
  <g stroke="null" fill-rule="evenodd" fill="none" id="Page-1">
   <g stroke="null" id="Group-3">
    <text stroke="null" transform="matrix(0.17444487271649547,0,0,0.1647350048774324,85.00499688465158,-62.96821419808843) " x="-475.823668" y="373.515968" fill="#FFFFFF" font-weight="normal" font-size="108" font-family="Candara" id="HTMLPAGE">
     <tspan stroke="null" id="svg_1" y="486.515968" x="-273.173933">HTMLPAGE</tspan>
    </text>
    <g stroke="null" fill-rule="nonzero" id="Group">
     <path stroke="null" fill="#FFFFFF" id="Shape" d="m25.406629,0.56298l-0.275885,-0.17494l0,0c-0.252525,-0.156088 -0.559881,-0.212419 -0.855963,-0.15688l-0.009568,0c-0.292042,0.058741 -0.54808,0.223099 -0.713235,0.457851l-11.761016,16.612049l0,0c-0.164922,0.236795 -0.224627,0.525263 -0.166249,0.803215l0,0l0,0.014671l0,0c0.062399,0.274332 0.236685,0.514476 0.485192,0.668531l0.275886,0.170423c0.252036,0.15773 0.560279,0.214212 0.856554,0.156955c0.296277,-0.057259 0.556174,-0.223537 0.722212,-0.462062l11.761014,-16.607535l0,0c0.165007,-0.238449 0.224673,-0.52833 0.166249,-0.807729c-0.059233,-0.277188 -0.234074,-0.520264 -0.485192,-0.674549zm-0.190169,1.166258l-1.398165,1.974366l-1.150586,-0.717815l1.398165,-1.96985c0.076714,-0.109414 0.196554,-0.185391 0.332897,-0.211055c0.136458,-0.026274 0.278386,-0.000435 0.394692,0.071857l0.275886,0.174939c0.115948,0.072391 0.196463,0.185477 0.223658,0.314138c0.026892,0.126045 -0.000663,0.257006 -0.076546,0.363797l0,-0.000377zm-16.52921,13.071889c-0.153822,0.000511 -0.30321,-0.048603 -0.423395,-0.139199l-6.001308,-4.473921c-0.1657,-0.122133 -0.262548,-0.309481 -0.262548,-0.507888c0,-0.198407 0.096848,-0.385755 0.262548,-0.507888l5.996523,-4.481069c0.297249,-0.223048 0.72983,-0.176476 0.966198,0.104022c0.236368,0.280499 0.187014,0.688704 -0.110235,0.911752l-5.316377,3.973935l5.311593,3.961144c0.230625,0.170535 0.321331,0.460284 0.225931,0.721704c-0.0954,0.26142 -0.355932,0.437029 -0.64893,0.437408zm20.124095,0c-0.292924,-0.000539 -0.553301,-0.176204 -0.648597,-0.437586c-0.095296,-0.26138 -0.004572,-0.551034 0.225997,-0.721526l5.311194,-3.961144l-5.316377,-3.976945c-0.192287,-0.143481 -0.288849,-0.372865 -0.253315,-0.601746c0.035534,-0.228881 0.19777,-0.422486 0.42559,-0.507888c0.227822,-0.0854 0.486617,-0.049621 0.678903,0.093859l5.996126,4.48596c0.1657,0.122131 0.262548,0.309479 0.262548,0.507888c0,0.198407 -0.096848,0.385755 -0.262548,0.507886l-5.996126,4.467903c-0.119804,0.091736 -0.269116,0.142285 -0.423395,0.143338z"/>
     <path stroke="null" fill="#1C96D4" id="Shape" d="m16.928435,5.770627c0.374713,-0.971454 0.683393,-1.258236 1.712857,-1.616339c-1.029464,-0.353597 -1.331382,-0.644883 -1.712857,-1.615961c-0.374713,0.971454 -0.683393,1.258236 -1.712859,1.616337c1.029863,0.357727 1.333373,0.644509 1.712859,1.615963z"/>
     <path stroke="null" fill="#C61A41" id="Shape" d="m12.691637,11.264148c0.654753,-1.683529 1.181419,-2.180517 2.965481,-2.798373c-1.784062,-0.617857 -2.310728,-1.114846 -2.965481,-2.798373c-0.654753,1.683528 -1.181419,2.180517 -2.965479,2.798373c1.78406,0.613353 2.315501,1.114844 2.965479,2.798373z"/>
     <path stroke="null" fill="#EEB034" id="Shape" d="m24.273119,13.85194c0.474556,-1.222202 0.858817,-1.580303 2.148034,-2.026992c-1.295185,-0.447814 -1.674671,-0.81042 -2.148034,-2.02699c-0.474556,1.2222 -0.858817,1.580301 -2.148034,2.02699c1.289217,0.446689 1.673478,0.810796 2.148034,2.026992z"/>
    </g>
   </g>
  </g>
 </g>
</svg>